<svg xmlns="http://www.w3.org/2000/svg" viewBox="0 0 64 64" role="img" aria-label="CRM MinasLab">
  <rect x="2" y="2" width="60" height="60" rx="15" fill="#ffffff"/>
  <circle cx="32" cy="22" r="8" fill="#009f9a"/>
  <circle cx="17" cy="28" r="6" fill="#063f46"/>
  <circle cx="47" cy="28" r="6" fill="#063f46"/>
  <path d="M19 49c0-8 5.8-14 13-14s13 6 13 14v3H19v-3Z" fill="#009f9a"/>
  <path d="M6 50c0-6.4 4.4-11 10.5-11 3 0 5.6 1.1 7.5 3-2.4 2.8-3.6 6.1-3.6 10H6v-2Z" fill="#063f46"/>
  <path d="M58 50c0-6.4-4.4-11-10.5-11-3 0-5.6 1.1-7.5 3 2.4 2.8 3.6 6.1 3.6 10H58v-2Z" fill="#063f46"/>
</svg>
